<?xml version="1.0" encoding="utf-8"?>
<!-- Generator: Adobe Illustrator 15.0.0, SVG Export Plug-In . SVG Version: 6.00 Build 0)  -->
<!DOCTYPE svg PUBLIC "-//W3C//DTD SVG 1.1//EN" "http://www.w3.org/Graphics/SVG/1.1/DTD/svg11.dtd">
<svg version="1.1" id="Layer_1" xmlns="http://www.w3.org/2000/svg" xmlns:xlink="http://www.w3.org/1999/xlink" x="0px" y="0px"
	 width="27px" height="12px" viewBox="15 16 27 12" enable-background="new 15 16 27 12" xml:space="preserve">
<g>
	<path fill="#FFFFFF" d="M16.6,16.5h8.8c0.609,0,1.1,0.49,1.1,1.1v8.8c0,0.609-0.49,1.1-1.1,1.1h-8.8c-0.61,0-1.1-0.49-1.1-1.1v-8.8
		C15.5,16.99,15.99,16.5,16.6,16.5z"/>
	<path fill="#A0A0A0" d="M25.4,28h-8.8c-0.882,0-1.6-0.718-1.6-1.6v-8.8c0-0.882,0.718-1.6,1.6-1.6h8.8c0.882,0,1.6,0.718,1.6,1.6
		v8.8C27,27.282,26.282,28,25.4,28z M16.6,17c-0.336,0-0.6,0.264-0.6,0.6v8.8c0,0.331,0.269,0.6,0.6,0.6h8.8
		c0.331,0,0.6-0.269,0.6-0.6v-8.8c0-0.331-0.269-0.6-0.6-0.6H16.6z"/>
</g>
<path fill="#0255A5" d="M19.05,19.5h3.9c0.3,0,0.55,0,0.55,0.3v4.15c0,0.3-0.25,0.55-0.55,0.55h-3.9c-0.3,0-0.55-0.25-0.55-0.55
	v-3.9C18.5,19.75,18.75,19.5,19.05,19.5z"/>
<g>
	<path fill="#FFFFFF" d="M31.601,16.5h8.8c0.609,0,1.1,0.49,1.1,1.1V26.4c0,0.609-0.49,1.1-1.1,1.1h-8.8
		c-0.61,0-1.101-0.49-1.101-1.1V17.6C30.5,16.99,30.99,16.5,31.601,16.5z"/>
	<path fill="#A0A0A0" d="M40.4,28h-8.8C30.718,28,30,27.282,30,26.4V17.6c0-0.882,0.718-1.6,1.601-1.6h8.8
		c0.882,0,1.6,0.718,1.6,1.6V26.4C42,27.282,41.282,28,40.4,28z M31.601,17C31.264,17,31,17.263,31,17.6V26.4
		c0,0.336,0.264,0.6,0.601,0.6h8.8c0.331,0,0.6-0.269,0.6-0.6V17.6c0-0.331-0.269-0.6-0.6-0.6H31.601z"/>
</g>
</svg>
