<?xml version="1.0" encoding="utf-8"?>
<!-- Generator: Adobe Illustrator 15.0.0, SVG Export Plug-In . SVG Version: 6.00 Build 0)  -->
<!DOCTYPE svg PUBLIC "-//W3C//DTD SVG 1.1//EN" "http://www.w3.org/Graphics/SVG/1.1/DTD/svg11.dtd">
<svg version="1.1" id="Layer_1" xmlns="http://www.w3.org/2000/svg" xmlns:xlink="http://www.w3.org/1999/xlink" x="0px" y="0px"
	 width="27px" height="12px" viewBox="0 0 27 12" enable-background="new 0 0 27 12" xml:space="preserve">
<g>
	<path fill="#FFFFFF" d="M5.5,0.5h1c2.76,0,5,2.24,5,5v1c0,2.76-2.24,5-5,5h-1c-2.76,0-5-2.24-5-5v-1C0.5,2.74,2.74,0.5,5.5,0.5z"/>
	<path fill="#A0A0A0" d="M6.5,12h-1C2.467,12,0,9.532,0,6.5v-1C0,2.467,2.467,0,5.5,0h1C9.533,0,12,2.467,12,5.5v1
		C12,9.532,9.533,12,6.5,12z M5.5,1C3.019,1,1,3.019,1,5.5v1C1,8.981,3.019,11,5.5,11h1C8.981,11,11,8.981,11,6.5v-1
		C11,3.019,8.981,1,6.5,1H5.5z"/>
</g>
<circle fill="#0255A5" cx="6" cy="6" r="2.5"/>
<g>
	<path fill="#FFFFFF" d="M20.5,0.5h1c2.76,0,5,2.24,5,5v1c0,2.76-2.24,5-5,5h-1c-2.76,0-5-2.24-5-5v-1C15.5,2.74,17.74,0.5,20.5,0.5
		z"/>
	<path fill="#A0A0A0" d="M21.5,12h-1C17.468,12,15,9.532,15,6.5v-1C15,2.467,17.468,0,20.5,0h1C24.532,0,27,2.467,27,5.5v1
		C27,9.532,24.532,12,21.5,12z M20.5,1C18.019,1,16,3.019,16,5.5v1c0,2.481,2.019,4.5,4.5,4.5h1c2.481,0,4.5-2.019,4.5-4.5v-1
		C26,3.019,23.981,1,21.5,1H20.5z"/>
</g>
</svg>
