<?xml version="1.0" encoding="utf-8"?>
<!-- Generator: Adobe Illustrator 15.0.0, SVG Export Plug-In . SVG Version: 6.00 Build 0)  -->
<!DOCTYPE svg PUBLIC "-//W3C//DTD SVG 1.1//EN" "http://www.w3.org/Graphics/SVG/1.1/DTD/svg11.dtd">
<svg version="1.1" id="Layer_1" xmlns="http://www.w3.org/2000/svg" xmlns:xlink="http://www.w3.org/1999/xlink" x="0px" y="0px"
	 width="31.354px" height="43px" viewBox="0 0 31.354 43" enable-background="new 0 0 31.354 43" xml:space="preserve">
<path fill-rule="evenodd" clip-rule="evenodd" fill="#7B7B7B" d="M22.04,7.52c0.04,0.1,0.06,0.23,0.05,0.38
	c0.41,0.2,0.45,0.52,0.35,0.87c-0.11,0.41-0.37,0.7-1.03,0.54C21.38,9.62,21.58,9.92,21.9,10c0.27,0.07,0.55-0.03,0.71-0.24
	l0.03-0.14c0.1-0.36,0.48-0.57,0.85-0.48c0.36,0.09,0.58,0.46,0.48,0.82c-0.03,0.1-0.09,0.2-0.16,0.28
	c-0.03,0.25,0.09,0.5,0.34,0.63c0.17,0.1,0.37,0.11,0.55,0.04c-0.49-0.24-0.5-0.59-0.35-0.95c0.08-0.18,0.18-0.36,0.34-0.45
	C24.38,8.43,23.42,7.54,22.04,7.52z M24.3,7.33c-0.38-0.69-1.02-1.2-2.04-1.71c0,0.29-0.1,0.48-0.27,0.6
	c0.29,0.06,0.51,0.29,0.54,0.58c0.06,0,0.09,0.06,0.08,0.13c0.83,0.14,1.51,0.54,1.99,1.09C24.53,7.79,24.43,7.55,24.3,7.33z
	 M11.05,6.76C11.03,6.88,11.01,7,10.99,7.13c0.15,0.06,0.28,0.17,0.37,0.37c0.46-0.03,0.65,0.23,0.74,0.58
	c0.11,0.41,0.03,0.79-0.63,0.96c0.13,0.29,0.46,0.45,0.78,0.37c0.3-0.08,0.5-0.34,0.51-0.62c-0.06-0.1-0.09-0.22-0.09-0.34
	c0.01-0.37,0.32-0.67,0.7-0.67s0.69,0.3,0.68,0.67c0,0.07-0.01,0.13-0.03,0.19c0.08,0.27,0.34,0.47,0.64,0.47
	c0.34,0,0.62-0.24,0.67-0.55c-0.67-0.01-0.84-0.35-0.84-0.77c0.01-0.36,0.13-0.67,0.59-0.75c0.07-0.37,0.18-0.52,0.48-0.57
	c-0.21-0.09-0.36-0.3-0.35-0.54c-0.37-0.2-0.73-0.25-1.14-0.25C12.9,5.68,11.84,6.09,11.05,6.76z M11.39,5.74
	c0.84-0.45,1.74-0.69,2.69-0.69c0.44,0,0.84,0.05,1.24,0.14V5.06c-0.06-0.1-0.1-0.21-0.1-0.33c0-0.13,0.04-0.24,0.11-0.34V3.85
	c-0.06-0.09-0.1-0.21-0.1-0.33C13.45,3.36,12.05,4.34,11.39,5.74z M8.14,11.96c-0.2,0.09-0.41,0-0.5-0.19
	c-0.05-0.1-0.05-0.22,0-0.32c-0.39,0.12-0.81,0.04-1.12-0.19c-0.36,0.23-0.72,0.12-1-0.09c-0.29-0.22-0.53-0.74-0.18-1.03
	C5.07,9.8,5.14,9.35,5.47,9.15c-0.05-0.1-0.09-0.21-0.09-0.34c0-0.32,0.24-0.59,0.55-0.65C5.77,8.04,5.67,7.85,5.67,7.63
	c0-0.35,0.27-0.63,0.62-0.67c-0.07-0.1-0.11-0.23-0.11-0.37c0-0.37,0.31-0.67,0.69-0.67c0.06,0,0.12,0.01,0.18,0.03
	C7.01,5.86,6.99,5.77,6.99,5.67C6.99,5.3,7.3,5,7.68,5C7.79,5,7.9,5.02,7.99,5.07c0-0.48,0.31-0.78,0.69-0.78
	c0.15,0,0.28,0.05,0.39,0.12c0.07-0.3,0.35-0.53,0.68-0.53c0.24,0,0.46,0.13,0.58,0.31c0.12-0.13,0.31-0.22,0.51-0.22
	c0.05,0,0.1,0.01,0.15,0.02c-0.03-0.08-0.04-0.16-0.04-0.24c0-0.38,0.31-0.68,0.69-0.68c0.14,0,0.26,0.04,0.37,0.1
	c-0.01-0.48,0.3-0.78,0.68-0.78c0.16,0,0.3,0.05,0.41,0.14C13.18,2.22,13.45,2,13.78,2c0.19,0,0.37,0.07,0.49,0.2
	c0.11-0.23,0.35-0.39,0.63-0.39c0.08,0,0.15,0.01,0.22,0.03c0.13-0.13,0.28-0.24,0.46-0.3l0.13-0.56h-0.52V0.46h0.53V0h0.56
	l-0.01,0.46h0.53l-0.01,0.52h-0.52L16.26,1.5c0.3,0.1,0.45,0.21,0.58,0.34c0.07-0.02,0.14-0.03,0.22-0.03
	c0.28,0,0.51,0.16,0.62,0.39c0.13-0.13,0.3-0.2,0.49-0.2c0.33,0,0.6,0.22,0.67,0.53c0.11-0.09,0.26-0.14,0.41-0.14
	c0.38,0,0.69,0.3,0.68,0.68c0.1,0.04,0.22,0,0.36,0c0.38,0,0.68,0.3,0.68,0.68c-0.01,0.08-0.02,0.16-0.06,0.24
	c0.05-0.01,0.11-0.02,0.16-0.02c0.2,0,0.38,0.09,0.51,0.22c0.12-0.18,0.34-0.31,0.58-0.31c0.33,0,0.6,0.23,0.67,0.53
	c0.11-0.07,0.24-0.12,0.39-0.12c0.38,0,0.69,0.3,0.68,0.67C23.98,5.02,24.09,5,24.2,5c0.38,0,0.69,0.3,0.68,0.67
	c0,0.1-0.03,0.19-0.07,0.28c0.06-0.02,0.12-0.03,0.18-0.03c0.38,0,0.68,0.3,0.68,0.67c-0.01,0.14-0.05,0.27-0.12,0.37
	c0.34,0.04,0.61,0.32,0.6,0.67c0,0.22-0.11,0.41-0.27,0.53c0.31,0.06,0.54,0.33,0.53,0.65c0,0.13-0.04,0.24-0.1,0.34
	c0.33,0.2,0.39,0.65,0.11,0.99c0.35,0.29,0.09,0.81-0.2,1.03c-0.28,0.21-0.65,0.32-1,0.09c-0.32,0.23-0.74,0.31-1.12,0.19
	c0.04,0.1,0.04,0.22-0.01,0.32c-0.09,0.19-0.33,0.27-0.52,0.19c-2.3-1.07-4.92-1.68-7.69-1.68S10.49,10.88,8.14,11.96z M7.11,9.52
	c0.14,0.1,0.24,0.26,0.31,0.44c0.14,0.36,0.12,0.71-0.38,0.95c0.18,0.07,0.38,0.06,0.56-0.04c0.25-0.13,0.37-0.38,0.35-0.63
	c-0.07-0.08-0.12-0.18-0.15-0.28C7.71,9.6,7.93,9.23,8.3,9.14c0.37-0.09,0.75,0.12,0.84,0.48l0.02,0.14
	c0.16,0.21,0.43,0.31,0.7,0.24c0.33-0.08,0.54-0.38,0.51-0.69C9.71,9.47,9.46,9.18,9.36,8.77C9.27,8.42,9.31,8.1,9.73,7.9
	C9.72,7.75,9.74,7.62,9.8,7.52C8.38,7.55,7.42,8.45,7.11,9.52z M9.32,6.8c0.03-0.29,0.26-0.52,0.54-0.58C9.7,6.1,9.6,5.91,9.6,5.69
	C8.55,6.14,7.9,6.67,7.5,7.38c-0.15,0.36-0.18,0.44-0.24,0.6c0.49-0.54,1.18-0.93,2-1.07L9.32,6.8z M16.65,5.93
	c0,0.24-0.15,0.45-0.36,0.54c0.29,0.05,0.4,0.2,0.47,0.57c0.45,0.08,0.57,0.39,0.57,0.75c-0.01,0.42-0.19,0.76-0.86,0.77
	c0.04,0.31,0.32,0.55,0.65,0.55c0.31,0,0.57-0.2,0.66-0.47c-0.02-0.06-0.03-0.12-0.03-0.19c0-0.37,0.32-0.67,0.7-0.67
	c0.38,0,0.69,0.3,0.68,0.67c0,0.12-0.04,0.24-0.1,0.34c0.01,0.28,0.2,0.54,0.5,0.62c0.32,0.08,0.66-0.08,0.79-0.37
	c-0.65-0.17-0.73-0.55-0.61-0.96c0.1-0.35,0.3-0.61,0.75-0.58c0.1-0.2,0.23-0.31,0.38-0.37c-0.01-0.12-0.03-0.24-0.05-0.36
	c-0.77-0.67-1.83-1.09-3-1.09c-0.4,0-0.77,0.05-1.15,0.14L16.65,5.93z M20.49,5.76c-0.62-1.42-2-2.41-3.81-2.31
	c0,0.19-0.04,0.31-0.11,0.4v0.54c0.06,0.1,0.1,0.21,0.1,0.34c-0.01,0.12-0.04,0.23-0.11,0.33v0.13c0.4-0.09,0.8-0.14,1.23-0.14
	C18.79,5.05,19.72,5.31,20.49,5.76z M9.58,10.55c-0.25-0.02-0.5-0.11-0.7-0.25c-0.07,0.05-0.15,0.09-0.24,0.11
	c-0.14,0.26-0.26,0.48-0.44,0.67C8.65,10.88,9.11,10.71,9.58,10.55z M20.85,9.21c-0.17,0.37-0.51,0.64-0.91,0.72
	c0.45,0.09,0.89,0.2,1.32,0.33C20.96,10,20.8,9.61,20.85,9.21z M19,9.75c-0.25-0.16-0.44-0.39-0.53-0.66
	c-0.11,0-0.18-0.01-0.24-0.03c-0.17,0.24-0.42,0.42-0.71,0.51C18.02,9.61,18.52,9.67,19,9.75z M14.25,9.57
	c-0.28-0.09-0.53-0.27-0.69-0.51c-0.07,0.02-0.13,0.03-0.2,0.03c-0.14,0.27-0.34,0.5-0.59,0.66C13.26,9.67,13.75,9.61,14.25,9.57z
	 M10.94,9.21c0.04,0.4-0.13,0.79-0.44,1.05c0.44-0.13,0.88-0.24,1.33-0.33C11.43,9.85,11.09,9.58,10.94,9.21z M15.2,9.52l0.69-0.02
	l0.69,0.02C16.22,9.34,15.95,9,15.9,8.6C15.84,9,15.56,9.34,15.2,9.52z M22.17,10.55c0.47,0.16,0.92,0.33,1.37,0.53
	c-0.17-0.19-0.29-0.41-0.33-0.65c-0.18-0.04-0.26-0.08-0.33-0.13C22.68,10.44,22.43,10.53,22.17,10.55z M25,10.05
	c-0.18,0.31-0.08,0.7,0.24,0.87c0.31,0.17,0.72,0.05,0.9-0.25c0.18-0.32,0.07-0.7-0.25-0.88C25.58,9.62,25.18,9.74,25,10.05z
	 M20.48,8.13c-0.1,0.34,0.11,0.69,0.46,0.78c0.35,0.09,0.71-0.12,0.81-0.46c0.09-0.34-0.11-0.69-0.46-0.78
	C20.93,7.58,20.57,7.79,20.48,8.13z M6.87,9.99c-0.18-0.31-0.58-0.43-0.9-0.26C5.65,9.9,5.54,10.29,5.71,10.6
	c0.18,0.31,0.57,0.42,0.89,0.25C6.92,10.68,7.04,10.29,6.87,9.99z M11.33,8.13c-0.08-0.34-0.44-0.55-0.79-0.46
	c-0.36,0.09-0.57,0.44-0.48,0.78C10.14,8.79,10.5,9,10.85,8.91C11.21,8.82,11.42,8.47,11.33,8.13z M16.57,7.65
	c0-0.36-0.29-0.64-0.65-0.64c-0.37,0-0.66,0.28-0.67,0.64c0,0.35,0.29,0.64,0.65,0.64C16.27,8.29,16.57,8,16.57,7.65z M23.41,12.74
	l0.12,0.51L23,13.53c0.09,0.05,0.12,0.15,0.07,0.23c-0.04,0.1-0.15,0.15-0.24,0.1c-2.11-0.97-4.47-1.51-6.97-1.51
	c-2.51,0-4.88,0.54-7.01,1.51c-0.1,0.05-0.2,0-0.24-0.1c-0.05-0.08-0.01-0.18,0.07-0.23l-0.52-0.28l0.13-0.51
	c-0.07,0.02-0.15-0.02-0.18-0.09c-0.04-0.08-0.02-0.18,0.07-0.22c2.34-1.07,4.94-1.66,7.69-1.66c2.76,0,5.35,0.59,7.67,1.66
	c0.08,0.04,0.1,0.14,0.06,0.22C23.57,12.72,23.49,12.76,23.41,12.74z M15.83,14.68c-7.69,0-13.98,6.06-13.99,13.43
	c-0.01,7.27,6.14,13.16,13.68,13.16s13.83-5.89,13.99-13.16C29.67,20.74,23.52,14.68,15.83,14.68z M15.85,12.86
	c8.74,0,15.69,6.89,15.5,15.25C31.15,36.34,24.05,43,15.5,43S0,36.34,0,28.11C0,19.75,7.11,12.86,15.85,12.86z M28.8,28.03
	c-0.06,3.07-1.26,5.86-3.21,8.03l-1.47-1.43c1.65-1.87,2.73-3.73,2.79-6.72c0.06-3.15-1.59-6.76-4.32-8.61l-1.8,1.75
	c0.93,0.69,1.67,1.4,2.28,2.36l-1.51,1.24c-0.53-0.94-1.24-1.62-2.15-2.22l-3.72,3.73l-3.76-3.78c-1.95,1.3-3.1,3.2-3.17,5.5
	c-0.08,3.03,1.94,5.2,4.81,6.12l0.06-6.21h4.59l-0.02,1.39h-2.74l-0.02,1.56h2.71l-0.02,1.57h-2.71L15.4,34.3
	c1.97,0.1,4.13-1.06,5.41-2.41l1.39,1.36c-1.72,1.91-4.23,2.91-6.82,2.93l-0.02,1.9h-1.83l0.02-2.11c-3.94-0.94-6.77-4.3-6.7-8.27
	c0.05-2.72,1.57-5.01,3.78-6.61l-1.78-1.8c-2.88,2.27-4.42,5.06-4.56,8.62c-0.12,3.19,1.61,5.73,2.67,6.77l-1.32,1.28
	c-1.95-2.16-3.1-4.84-3.09-7.93c0.01-4.68,2.72-8.83,6.72-11.05l3.09,3.16c1.07-0.41,2.21-0.62,3.43-0.62
	c1.17,0.01,2.19,0.21,3.27,0.62l0.16-0.16l3.08-3.03C26.28,19.16,28.9,23.31,28.8,28.03z M17.62,21.62
	c-0.64-0.15-1.26-0.28-1.91-0.3c-0.66-0.02-1.31,0.11-1.94,0.25l1.79,1.8l0.19,0.13L17.62,21.62z M17.54,25.05l7.47,7.55
	c-0.43,0.68-0.97,1.34-1.61,2.06l1.86,1.81c-1.28,1.3-2.81,2.36-4.54,3.08l-3.13-3.09c2.09-0.46,3.92-1.61,5.33-3.24l-2.13-2.09
	c-1.18,1.32-2.97,2.55-4.85,2.66l0.01-0.97h2.71l0.03-2.59h-2.71l0.01-0.53h2.74l0.04-2.42H13.1l-0.05,4.69L9.3,28.26v-0.37
	c0.06-2.07,1.1-3.75,2.56-4.83l3.53,3.54l0.3,0.3L17.54,25.05z M6.63,25.62L5.5,24.5c0.64-1.7,1.74-3.2,3.3-4.49l1.02,1.02
	C8.33,22.21,7.17,23.8,6.63,25.62z"/>
</svg>
